<?xml version="1.0" encoding="UTF-8" standalone="no"?>
<!DOCTYPE svg PUBLIC "-//W3C//DTD SVG 1.1//EN"
 "http://www.w3.org/Graphics/SVG/1.1/DTD/svg11.dtd">
<!-- Generated by graphviz version 2.47.3 (20210619.1520)
 -->
<!-- Title: dependencies Pages: 1 -->
<svg width="602pt" height="174pt"
 viewBox="0.00 0.00 602.00 173.80" xmlns="http://www.w3.org/2000/svg" xmlns:xlink="http://www.w3.org/1999/xlink">
<g id="graph0" class="graph" transform="scale(1 1) rotate(0) translate(4 169.8)">
<title>dependencies</title>
<polygon fill="white" stroke="transparent" points="-4,4 -4,-169.8 598,-169.8 598,4 -4,4"/>
<text text-anchor="middle" x="297" y="-8.2" font-family="sans-serif" font-size="14.00">dependencies</text>
<g id="clust1" class="cluster">
<title>cluster_AuthModule</title>
<polygon fill="none" stroke="black" stroke-dasharray="1,5" points="8,-32.8 8,-157.8 586,-157.8 586,-32.8 8,-32.8"/>
</g>
<g id="clust6" class="cluster">
<title>cluster_AuthModule_imports</title>
<polygon fill="none" stroke="black" points="430,-40.8 430,-92.8 578,-92.8 578,-40.8 430,-40.8"/>
</g>
<g id="clust2" class="cluster">
<title>cluster_AuthModule_declarations</title>
<polygon fill="none" stroke="black" points="16,-40.8 16,-92.8 422,-92.8 422,-40.8 16,-40.8"/>
</g>
<!-- CreateComponent -->
<g id="node1" class="node">
<title>CreateComponent</title>
<polygon fill="#ffffb3" stroke="black" points="413.86,-84.8 296.14,-84.8 296.14,-48.8 413.86,-48.8 413.86,-84.8"/>
<text text-anchor="middle" x="355" y="-62.6" font-family="Times,serif" font-size="14.00">CreateComponent</text>
</g>
<!-- AuthModule -->
<g id="node4" class="node">
<title>AuthModule</title>
<polygon fill="#8dd3c7" stroke="black" points="331.55,-149.8 328.55,-153.8 307.55,-153.8 304.55,-149.8 244.45,-149.8 244.45,-113.8 331.55,-113.8 331.55,-149.8"/>
<text text-anchor="middle" x="288" y="-127.6" font-family="Times,serif" font-size="14.00">AuthModule</text>
</g>
<!-- CreateComponent&#45;&gt;AuthModule -->
<g id="edge1" class="edge">
<title>CreateComponent&#45;&gt;AuthModule</title>
<path fill="none" stroke="black" d="M313.92,-84.91C313.92,-84.91 313.92,-103.79 313.92,-103.79"/>
<polygon fill="black" stroke="black" points="310.42,-103.79 313.92,-113.79 317.42,-103.79 310.42,-103.79"/>
</g>
<!-- LoginComponent -->
<g id="node2" class="node">
<title>LoginComponent</title>
<polygon fill="#ffffb3" stroke="black" points="278.28,-84.8 163.72,-84.8 163.72,-48.8 278.28,-48.8 278.28,-84.8"/>
<text text-anchor="middle" x="221" y="-62.6" font-family="Times,serif" font-size="14.00">LoginComponent</text>
</g>
<!-- LoginComponent&#45;&gt;AuthModule -->
<g id="edge2" class="edge">
<title>LoginComponent&#45;&gt;AuthModule</title>
<path fill="none" stroke="black" d="M261.31,-84.91C261.31,-84.91 261.31,-103.79 261.31,-103.79"/>
<polygon fill="black" stroke="black" points="257.81,-103.79 261.31,-113.79 264.81,-103.79 257.81,-103.79"/>
</g>
<!-- LogoutComponent -->
<g id="node3" class="node">
<title>LogoutComponent</title>
<polygon fill="#ffffb3" stroke="black" points="145.78,-84.8 24.22,-84.8 24.22,-48.8 145.78,-48.8 145.78,-84.8"/>
<text text-anchor="middle" x="85" y="-62.6" font-family="Times,serif" font-size="14.00">LogoutComponent</text>
</g>
<!-- LogoutComponent&#45;&gt;AuthModule -->
<g id="edge3" class="edge">
<title>LogoutComponent&#45;&gt;AuthModule</title>
<path fill="none" stroke="black" d="M85,-84.91C85,-104.14 85,-131.8 85,-131.8 85,-131.8 234.45,-131.8 234.45,-131.8"/>
<polygon fill="black" stroke="black" points="234.45,-135.3 244.45,-131.8 234.45,-128.3 234.45,-135.3"/>
</g>
<!-- AuthRoutingModule -->
<g id="node5" class="node">
<title>AuthRoutingModule</title>
<polygon fill="#8dd3c7" stroke="black" points="570.17,-84.8 567.17,-88.8 546.17,-88.8 543.17,-84.8 437.83,-84.8 437.83,-48.8 570.17,-48.8 570.17,-84.8"/>
<text text-anchor="middle" x="504" y="-62.6" font-family="Times,serif" font-size="14.00">AuthRoutingModule</text>
</g>
<!-- AuthRoutingModule&#45;&gt;AuthModule -->
<g id="edge4" class="edge">
<title>AuthRoutingModule&#45;&gt;AuthModule</title>
<path fill="none" stroke="black" d="M504,-84.91C504,-104.14 504,-131.8 504,-131.8 504,-131.8 341.71,-131.8 341.71,-131.8"/>
<polygon fill="black" stroke="black" points="341.71,-128.3 331.71,-131.8 341.71,-135.3 341.71,-128.3"/>
</g>
</g>
</svg>
