<?xml version="1.0" encoding="UTF-8" standalone="no"?>
<!DOCTYPE svg PUBLIC "-//W3C//DTD SVG 1.1//EN"
 "http://www.w3.org/Graphics/SVG/1.1/DTD/svg11.dtd">
<!-- Generated by graphviz version 2.47.3 (20210619.1520)
 -->
<!-- Title: dependencies Pages: 1 -->
<svg width="346pt" height="174pt"
 viewBox="0.00 0.00 346.00 173.80" xmlns="http://www.w3.org/2000/svg" xmlns:xlink="http://www.w3.org/1999/xlink">
<g id="graph0" class="graph" transform="scale(1 1) rotate(0) translate(4 169.8)">
<title>dependencies</title>
<polygon fill="white" stroke="transparent" points="-4,4 -4,-169.8 342,-169.8 342,4 -4,4"/>
<text text-anchor="middle" x="169" y="-8.2" font-family="sans-serif" font-size="14.00">dependencies</text>
<g id="clust1" class="cluster">
<title>cluster_EtudiantModule</title>
<polygon fill="none" stroke="black" stroke-dasharray="1,5" points="8,-32.8 8,-157.8 330,-157.8 330,-32.8 8,-32.8"/>
</g>
<g id="clust2" class="cluster">
<title>cluster_EtudiantModule_declarations</title>
<polygon fill="none" stroke="black" points="192,-40.8 192,-92.8 322,-92.8 322,-40.8 192,-40.8"/>
</g>
<g id="clust4" class="cluster">
<title>cluster_EtudiantModule_imports</title>
<polygon fill="none" stroke="black" points="16,-40.8 16,-92.8 184,-92.8 184,-40.8 16,-40.8"/>
</g>
<!-- ProfilComponent -->
<g id="node1" class="node">
<title>ProfilComponent</title>
<polygon fill="#ffffb3" stroke="black" points="313.72,-84.8 200.28,-84.8 200.28,-48.8 313.72,-48.8 313.72,-84.8"/>
<text text-anchor="middle" x="257" y="-62.6" font-family="Times,serif" font-size="14.00">ProfilComponent</text>
</g>
<!-- EtudiantModule -->
<g id="node2" class="node">
<title>EtudiantModule</title>
<polygon fill="#8dd3c7" stroke="black" points="231.49,-149.8 228.49,-153.8 207.49,-153.8 204.49,-149.8 124.51,-149.8 124.51,-113.8 231.49,-113.8 231.49,-149.8"/>
<text text-anchor="middle" x="178" y="-127.6" font-family="Times,serif" font-size="14.00">EtudiantModule</text>
</g>
<!-- ProfilComponent&#45;&gt;EtudiantModule -->
<g id="edge1" class="edge">
<title>ProfilComponent&#45;&gt;EtudiantModule</title>
<path fill="none" stroke="black" d="M215.94,-84.91C215.94,-84.91 215.94,-103.79 215.94,-103.79"/>
<polygon fill="black" stroke="black" points="212.44,-103.79 215.94,-113.79 219.44,-103.79 212.44,-103.79"/>
</g>
<!-- EtudiantRoutingModule -->
<g id="node3" class="node">
<title>EtudiantRoutingModule</title>
<polygon fill="#8dd3c7" stroke="black" points="176.11,-84.8 173.11,-88.8 152.11,-88.8 149.11,-84.8 23.89,-84.8 23.89,-48.8 176.11,-48.8 176.11,-84.8"/>
<text text-anchor="middle" x="100" y="-62.6" font-family="Times,serif" font-size="14.00">EtudiantRoutingModule</text>
</g>
<!-- EtudiantRoutingModule&#45;&gt;EtudiantModule -->
<g id="edge2" class="edge">
<title>EtudiantRoutingModule&#45;&gt;EtudiantModule</title>
<path fill="none" stroke="black" d="M150.28,-84.91C150.28,-84.91 150.28,-103.79 150.28,-103.79"/>
<polygon fill="black" stroke="black" points="146.78,-103.79 150.28,-113.79 153.78,-103.79 146.78,-103.79"/>
</g>
</g>
</svg>
