<?xml version="1.0" encoding="UTF-8" standalone="no"?>
<!DOCTYPE svg PUBLIC "-//W3C//DTD SVG 1.1//EN"
 "http://www.w3.org/Graphics/SVG/1.1/DTD/svg11.dtd">
<!-- Generated by graphviz version 2.47.3 (20210619.1520)
 -->
<!-- Title: dependencies Pages: 1 -->
<svg width="776pt" height="247pt"
 viewBox="0.00 0.00 776.00 246.80" xmlns="http://www.w3.org/2000/svg" xmlns:xlink="http://www.w3.org/1999/xlink">
<g id="graph0" class="graph" transform="scale(1 1) rotate(0) translate(4 242.8)">
<title>dependencies</title>
<polygon fill="white" stroke="transparent" points="-4,4 -4,-242.8 772,-242.8 772,4 -4,4"/>
<text text-anchor="middle" x="384" y="-8.2" font-family="sans-serif" font-size="14.00">dependencies</text>
<g id="clust1" class="cluster">
<title>cluster_LayoutModule</title>
<polygon fill="none" stroke="black" stroke-dasharray="1,5" points="8,-32.8 8,-230.8 760,-230.8 760,-32.8 8,-32.8"/>
</g>
<g id="clust9" class="cluster">
<title>cluster_LayoutModule_bootstrap</title>
<polygon fill="none" stroke="black" points="256,-170.8 256,-222.8 564,-222.8 564,-170.8 256,-170.8"/>
</g>
<g id="clust2" class="cluster">
<title>cluster_LayoutModule_declarations</title>
<polygon fill="none" stroke="black" points="184,-40.8 184,-92.8 752,-92.8 752,-40.8 184,-40.8"/>
</g>
<g id="clust7" class="cluster">
<title>cluster_LayoutModule_imports</title>
<polygon fill="none" stroke="black" points="16,-40.8 16,-92.8 176,-92.8 176,-40.8 16,-40.8"/>
</g>
<!-- FooterComponent -->
<g id="node1" class="node">
<title>FooterComponent</title>
<polygon fill="#ffffb3" stroke="black" points="743.88,-84.8 626.12,-84.8 626.12,-48.8 743.88,-48.8 743.88,-84.8"/>
<text text-anchor="middle" x="685" y="-62.6" font-family="Times,serif" font-size="14.00">FooterComponent</text>
</g>
<!-- LayoutModule -->
<g id="node5" class="node">
<title>LayoutModule</title>
<polygon fill="#8dd3c7" stroke="black" points="454.71,-149.8 451.71,-153.8 430.71,-153.8 427.71,-149.8 355.29,-149.8 355.29,-113.8 454.71,-113.8 454.71,-149.8"/>
<text text-anchor="middle" x="405" y="-127.6" font-family="Times,serif" font-size="14.00">LayoutModule</text>
</g>
<!-- FooterComponent&#45;&gt;LayoutModule -->
<g id="edge1" class="edge">
<title>FooterComponent&#45;&gt;LayoutModule</title>
<path fill="none" stroke="black" d="M685,-85.08C685,-106.12 685,-137.8 685,-137.8 685,-137.8 464.74,-137.8 464.74,-137.8"/>
<polygon fill="black" stroke="black" points="464.74,-134.3 454.74,-137.8 464.74,-141.3 464.74,-134.3"/>
</g>
<!-- MenuComponent -->
<g id="node2" class="node">
<title>MenuComponent</title>
<polygon fill="#ffffb3" stroke="black" points="607.99,-84.8 494.01,-84.8 494.01,-48.8 607.99,-48.8 607.99,-84.8"/>
<text text-anchor="middle" x="551" y="-62.6" font-family="Times,serif" font-size="14.00">MenuComponent</text>
</g>
<!-- MenuComponent&#45;&gt;LayoutModule -->
<g id="edge2" class="edge">
<title>MenuComponent&#45;&gt;LayoutModule</title>
<path fill="none" stroke="black" d="M525.07,-84.82C525.07,-102.17 525.07,-125.8 525.07,-125.8 525.07,-125.8 464.88,-125.8 464.88,-125.8"/>
<polygon fill="black" stroke="black" points="464.88,-122.3 454.88,-125.8 464.88,-129.3 464.88,-122.3"/>
</g>
<!-- MenuVertiComponent -->
<g id="node3" class="node">
<title>MenuVertiComponent</title>
<polygon fill="#ffffb3" stroke="black" points="476.25,-84.8 333.75,-84.8 333.75,-48.8 476.25,-48.8 476.25,-84.8"/>
<text text-anchor="middle" x="405" y="-62.6" font-family="Times,serif" font-size="14.00">MenuVertiComponent</text>
</g>
<!-- MenuVertiComponent&#45;&gt;LayoutModule -->
<g id="edge3" class="edge">
<title>MenuVertiComponent&#45;&gt;LayoutModule</title>
<path fill="none" stroke="black" d="M405,-84.91C405,-84.91 405,-103.79 405,-103.79"/>
<polygon fill="black" stroke="black" points="401.5,-103.79 405,-113.79 408.5,-103.79 401.5,-103.79"/>
</g>
<!-- SessionComponent -->
<g id="node4" class="node">
<title>SessionComponent</title>
<polygon fill="#ffffb3" stroke="black" points="316.11,-84.8 191.89,-84.8 191.89,-48.8 316.11,-48.8 316.11,-84.8"/>
<text text-anchor="middle" x="254" y="-62.6" font-family="Times,serif" font-size="14.00">SessionComponent</text>
</g>
<!-- SessionComponent&#45;&gt;LayoutModule -->
<g id="edge4" class="edge">
<title>SessionComponent&#45;&gt;LayoutModule</title>
<path fill="none" stroke="black" d="M290.12,-84.82C290.12,-102.17 290.12,-125.8 290.12,-125.8 290.12,-125.8 345.28,-125.8 345.28,-125.8"/>
<polygon fill="black" stroke="black" points="345.28,-129.3 355.28,-125.8 345.28,-122.3 345.28,-129.3"/>
</g>
<!-- MenuVertiComponent  -->
<g id="node7" class="node">
<title>MenuVertiComponent </title>
<polygon fill="#fb8072" stroke="black" points="556.25,-214.8 409.75,-214.8 409.75,-178.8 556.25,-178.8 556.25,-214.8"/>
<text text-anchor="middle" x="483" y="-192.6" font-family="Times,serif" font-size="14.00">MenuVertiComponent </text>
</g>
<!-- LayoutModule&#45;&gt;MenuVertiComponent  -->
<g id="edge6" class="edge">
<title>LayoutModule&#45;&gt;MenuVertiComponent </title>
<path fill="none" stroke="black" stroke-dasharray="5,2" d="M439.69,-149.91C439.69,-149.91 439.69,-168.79 439.69,-168.79"/>
<polygon fill="black" stroke="black" points="436.19,-168.79 439.69,-178.79 443.19,-168.79 436.19,-168.79"/>
</g>
<!-- LayoutModule&#45;&gt;MenuVertiComponent  -->
<g id="edge9" class="edge">
<title>LayoutModule&#45;&gt;MenuVertiComponent </title>
<path fill="none" stroke="black" stroke-dasharray="1,5" d="M424.78,-149.91C424.78,-149.91 424.78,-168.79 424.78,-168.79"/>
<polygon fill="black" stroke="black" points="421.28,-168.79 424.78,-178.79 428.28,-168.79 421.28,-168.79"/>
</g>
<!-- SessionComponent  -->
<g id="node8" class="node">
<title>SessionComponent </title>
<polygon fill="#fb8072" stroke="black" points="391.61,-214.8 264.39,-214.8 264.39,-178.8 391.61,-178.8 391.61,-214.8"/>
<text text-anchor="middle" x="328" y="-192.6" font-family="Times,serif" font-size="14.00">SessionComponent </text>
</g>
<!-- LayoutModule&#45;&gt;SessionComponent  -->
<g id="edge7" class="edge">
<title>LayoutModule&#45;&gt;SessionComponent </title>
<path fill="none" stroke="black" stroke-dasharray="5,2" d="M379.67,-149.91C379.67,-149.91 379.67,-168.79 379.67,-168.79"/>
<polygon fill="black" stroke="black" points="376.17,-168.79 379.67,-178.79 383.17,-168.79 376.17,-168.79"/>
</g>
<!-- LayoutModule&#45;&gt;SessionComponent  -->
<g id="edge8" class="edge">
<title>LayoutModule&#45;&gt;SessionComponent </title>
<path fill="none" stroke="black" stroke-dasharray="1,5" d="M367.53,-149.91C367.53,-149.91 367.53,-168.79 367.53,-168.79"/>
<polygon fill="black" stroke="black" points="364.03,-168.79 367.53,-178.79 371.03,-168.79 364.03,-168.79"/>
</g>
<!-- LayoutRoutingModule -->
<g id="node6" class="node">
<title>LayoutRoutingModule</title>
<polygon fill="#8dd3c7" stroke="black" points="168.33,-84.8 165.33,-88.8 144.33,-88.8 141.33,-84.8 23.67,-84.8 23.67,-48.8 168.33,-48.8 168.33,-84.8"/>
<text text-anchor="middle" x="96" y="-62.6" font-family="Times,serif" font-size="14.00">LayoutRoutingModule</text>
</g>
<!-- LayoutRoutingModule&#45;&gt;LayoutModule -->
<g id="edge5" class="edge">
<title>LayoutRoutingModule&#45;&gt;LayoutModule</title>
<path fill="none" stroke="black" d="M96,-85.08C96,-106.12 96,-137.8 96,-137.8 96,-137.8 345.35,-137.8 345.35,-137.8"/>
<polygon fill="black" stroke="black" points="345.35,-141.3 355.35,-137.8 345.35,-134.3 345.35,-141.3"/>
</g>
</g>
</svg>
