<?xml version="1.0" encoding="UTF-8" standalone="no"?>
<!DOCTYPE svg PUBLIC "-//W3C//DTD SVG 1.1//EN"
 "http://www.w3.org/Graphics/SVG/1.1/DTD/svg11.dtd">
<!-- Generated by graphviz version 2.47.3 (20210619.1520)
 -->
<!-- Title: dependencies Pages: 1 -->
<svg width="633pt" height="174pt"
 viewBox="0.00 0.00 633.00 173.80" xmlns="http://www.w3.org/2000/svg" xmlns:xlink="http://www.w3.org/1999/xlink">
<g id="graph0" class="graph" transform="scale(1 1) rotate(0) translate(4 169.8)">
<title>dependencies</title>
<polygon fill="white" stroke="transparent" points="-4,4 -4,-169.8 629,-169.8 629,4 -4,4"/>
<text text-anchor="middle" x="312.5" y="-8.2" font-family="sans-serif" font-size="14.00">dependencies</text>
<g id="clust1" class="cluster">
<title>cluster_PublicModule</title>
<polygon fill="none" stroke="black" stroke-dasharray="1,5" points="8,-32.8 8,-157.8 617,-157.8 617,-32.8 8,-32.8"/>
</g>
<g id="clust2" class="cluster">
<title>cluster_PublicModule_declarations</title>
<polygon fill="none" stroke="black" points="180,-40.8 180,-92.8 609,-92.8 609,-40.8 180,-40.8"/>
</g>
<g id="clust6" class="cluster">
<title>cluster_PublicModule_imports</title>
<polygon fill="none" stroke="black" points="16,-40.8 16,-92.8 172,-92.8 172,-40.8 16,-40.8"/>
</g>
<!-- AboutComponent -->
<g id="node1" class="node">
<title>AboutComponent</title>
<polygon fill="#ffffb3" stroke="black" points="601.33,-84.8 484.67,-84.8 484.67,-48.8 601.33,-48.8 601.33,-84.8"/>
<text text-anchor="middle" x="543" y="-62.6" font-family="Times,serif" font-size="14.00">AboutComponent</text>
</g>
<!-- PublicModule -->
<g id="node4" class="node">
<title>PublicModule</title>
<polygon fill="#8dd3c7" stroke="black" points="367.83,-149.8 364.83,-153.8 343.83,-153.8 340.83,-149.8 272.17,-149.8 272.17,-113.8 367.83,-113.8 367.83,-149.8"/>
<text text-anchor="middle" x="320" y="-127.6" font-family="Times,serif" font-size="14.00">PublicModule</text>
</g>
<!-- AboutComponent&#45;&gt;PublicModule -->
<g id="edge1" class="edge">
<title>AboutComponent&#45;&gt;PublicModule</title>
<path fill="none" stroke="black" d="M543,-84.91C543,-104.14 543,-131.8 543,-131.8 543,-131.8 377.84,-131.8 377.84,-131.8"/>
<polygon fill="black" stroke="black" points="377.84,-128.3 367.84,-131.8 377.84,-135.3 377.84,-128.3"/>
</g>
<!-- FormationsComponent -->
<g id="node2" class="node">
<title>FormationsComponent</title>
<polygon fill="#ffffb3" stroke="black" points="466.61,-84.8 321.39,-84.8 321.39,-48.8 466.61,-48.8 466.61,-84.8"/>
<text text-anchor="middle" x="394" y="-62.6" font-family="Times,serif" font-size="14.00">FormationsComponent</text>
</g>
<!-- FormationsComponent&#45;&gt;PublicModule -->
<g id="edge2" class="edge">
<title>FormationsComponent&#45;&gt;PublicModule</title>
<path fill="none" stroke="black" d="M344.56,-84.91C344.56,-84.91 344.56,-103.79 344.56,-103.79"/>
<polygon fill="black" stroke="black" points="341.06,-103.79 344.56,-113.79 348.06,-103.79 341.06,-103.79"/>
</g>
<!-- HomeComponent -->
<g id="node3" class="node">
<title>HomeComponent</title>
<polygon fill="#ffffb3" stroke="black" points="303.55,-84.8 188.45,-84.8 188.45,-48.8 303.55,-48.8 303.55,-84.8"/>
<text text-anchor="middle" x="246" y="-62.6" font-family="Times,serif" font-size="14.00">HomeComponent</text>
</g>
<!-- HomeComponent&#45;&gt;PublicModule -->
<g id="edge3" class="edge">
<title>HomeComponent&#45;&gt;PublicModule</title>
<path fill="none" stroke="black" d="M288.05,-84.91C288.05,-84.91 288.05,-103.79 288.05,-103.79"/>
<polygon fill="black" stroke="black" points="284.55,-103.79 288.05,-113.79 291.55,-103.79 284.55,-103.79"/>
</g>
<!-- PublicRoutingModule -->
<g id="node5" class="node">
<title>PublicRoutingModule</title>
<polygon fill="#8dd3c7" stroke="black" points="164.45,-84.8 161.45,-88.8 140.45,-88.8 137.45,-84.8 23.55,-84.8 23.55,-48.8 164.45,-48.8 164.45,-84.8"/>
<text text-anchor="middle" x="94" y="-62.6" font-family="Times,serif" font-size="14.00">PublicRoutingModule</text>
</g>
<!-- PublicRoutingModule&#45;&gt;PublicModule -->
<g id="edge4" class="edge">
<title>PublicRoutingModule&#45;&gt;PublicModule</title>
<path fill="none" stroke="black" d="M94,-84.91C94,-104.14 94,-131.8 94,-131.8 94,-131.8 262.07,-131.8 262.07,-131.8"/>
<polygon fill="black" stroke="black" points="262.07,-135.3 272.07,-131.8 262.07,-128.3 262.07,-135.3"/>
</g>
</g>
</svg>
