<?xml version="1.0" encoding="UTF-8" standalone="no"?>
<!DOCTYPE svg PUBLIC "-//W3C//DTD SVG 1.1//EN"
 "http://www.w3.org/Graphics/SVG/1.1/DTD/svg11.dtd">
<!-- Generated by graphviz version 2.47.3 (20210619.1520)
 -->
<!-- Title: dependencies Pages: 1 -->
<svg width="2625pt" height="323pt"
 viewBox="0.00 0.00 2625.00 322.80" xmlns="http://www.w3.org/2000/svg" xmlns:xlink="http://www.w3.org/1999/xlink">
<g id="graph0" class="graph" transform="scale(1 1) rotate(0) translate(4 318.8)">
<title>dependencies</title>
<polygon fill="white" stroke="transparent" points="-4,4 -4,-318.8 2621,-318.8 2621,4 -4,4"/>
<text text-anchor="middle" x="1308.5" y="-8.2" font-family="sans-serif" font-size="14.00">dependencies</text>
<g id="clust1" class="cluster">
<title>cluster_AppModule</title>
<polygon fill="none" stroke="black" stroke-dasharray="1,5" points="346,-108.8 346,-306.8 754,-306.8 754,-108.8 346,-108.8"/>
</g>
<g id="clust2" class="cluster">
<title>cluster_AppModule_declarations</title>
<polygon fill="none" stroke="black" points="624,-116.8 624,-168.8 746,-168.8 746,-116.8 624,-116.8"/>
</g>
<g id="clust4" class="cluster">
<title>cluster_AppModule_imports</title>
<polygon fill="none" stroke="black" points="354,-116.8 354,-168.8 616,-168.8 616,-116.8 354,-116.8"/>
</g>
<g id="clust6" class="cluster">
<title>cluster_AppModule_bootstrap</title>
<polygon fill="none" stroke="black" points="482,-246.8 482,-298.8 606,-298.8 606,-246.8 482,-246.8"/>
</g>
<g id="clust14" class="cluster">
<title>cluster_AuthModule</title>
<polygon fill="none" stroke="black" stroke-dasharray="1,5" points="1084,-32.8 1084,-168.8 1662,-168.8 1662,-32.8 1084,-32.8"/>
</g>
<g id="clust15" class="cluster">
<title>cluster_AuthModule_declarations</title>
<polygon fill="none" stroke="black" points="1248,-40.8 1248,-92.8 1654,-92.8 1654,-40.8 1248,-40.8"/>
</g>
<g id="clust19" class="cluster">
<title>cluster_AuthModule_imports</title>
<polygon fill="none" stroke="black" points="1092,-40.8 1092,-92.8 1240,-92.8 1240,-40.8 1092,-40.8"/>
</g>
<g id="clust29" class="cluster">
<title>cluster_EtudiantModule</title>
<polygon fill="none" stroke="black" stroke-dasharray="1,5" points="1670,-32.8 1670,-168.8 1992,-168.8 1992,-32.8 1670,-32.8"/>
</g>
<g id="clust30" class="cluster">
<title>cluster_EtudiantModule_declarations</title>
<polygon fill="none" stroke="black" points="1854,-40.8 1854,-92.8 1984,-92.8 1984,-40.8 1854,-40.8"/>
</g>
<g id="clust32" class="cluster">
<title>cluster_EtudiantModule_imports</title>
<polygon fill="none" stroke="black" points="1678,-40.8 1678,-92.8 1846,-92.8 1846,-40.8 1678,-40.8"/>
</g>
<g id="clust42" class="cluster">
<title>cluster_LayoutModule</title>
<polygon fill="none" stroke="black" stroke-dasharray="1,5" points="8,-32.8 8,-100.8 1076,-100.8 1076,-32.8 8,-32.8"/>
</g>
<g id="clust43" class="cluster">
<title>cluster_LayoutModule_declarations</title>
<polygon fill="none" stroke="black" points="500,-40.8 500,-92.8 1068,-92.8 1068,-40.8 500,-40.8"/>
</g>
<g id="clust48" class="cluster">
<title>cluster_LayoutModule_imports</title>
<polygon fill="none" stroke="black" points="332,-40.8 332,-92.8 492,-92.8 492,-40.8 332,-40.8"/>
</g>
<g id="clust49" class="cluster">
<title>cluster_LayoutModule_exports</title>
<polygon fill="none" stroke="black" points="16,-40.8 16,-92.8 324,-92.8 324,-40.8 16,-40.8"/>
</g>
<g id="clust58" class="cluster">
<title>cluster_PublicModule</title>
<polygon fill="none" stroke="black" stroke-dasharray="1,5" points="2000,-32.8 2000,-168.8 2609,-168.8 2609,-32.8 2000,-32.8"/>
</g>
<g id="clust59" class="cluster">
<title>cluster_PublicModule_declarations</title>
<polygon fill="none" stroke="black" points="2172,-40.8 2172,-92.8 2601,-92.8 2601,-40.8 2172,-40.8"/>
</g>
<g id="clust63" class="cluster">
<title>cluster_PublicModule_imports</title>
<polygon fill="none" stroke="black" points="2008,-40.8 2008,-92.8 2164,-92.8 2164,-40.8 2008,-40.8"/>
</g>
<!-- AppComponent -->
<g id="node1" class="node">
<title>AppComponent</title>
<polygon fill="#ffffb3" stroke="black" points="737.94,-160.8 632.06,-160.8 632.06,-124.8 737.94,-124.8 737.94,-160.8"/>
<text text-anchor="middle" x="685" y="-138.6" font-family="Times,serif" font-size="14.00">AppComponent</text>
</g>
<!-- AppModule -->
<g id="node2" class="node">
<title>AppModule</title>
<polygon fill="#8dd3c7" stroke="black" points="585.66,-225.8 582.66,-229.8 561.66,-229.8 558.66,-225.8 502.34,-225.8 502.34,-189.8 585.66,-189.8 585.66,-225.8"/>
<text text-anchor="middle" x="544" y="-203.6" font-family="Times,serif" font-size="14.00">AppModule</text>
</g>
<!-- AppComponent&#45;&gt;AppModule -->
<g id="edge1" class="edge">
<title>AppComponent&#45;&gt;AppModule</title>
<path fill="none" stroke="black" d="M685,-160.91C685,-180.14 685,-207.8 685,-207.8 685,-207.8 595.92,-207.8 595.92,-207.8"/>
<polygon fill="black" stroke="black" points="595.92,-204.3 585.92,-207.8 595.92,-211.3 595.92,-204.3"/>
</g>
<!-- AppComponent  -->
<g id="node5" class="node">
<title>AppComponent </title>
<polygon fill="#80b1d3" stroke="black" points="598.44,-290.8 489.56,-290.8 489.56,-254.8 598.44,-254.8 598.44,-290.8"/>
<text text-anchor="middle" x="544" y="-268.6" font-family="Times,serif" font-size="14.00">AppComponent </text>
</g>
<!-- AppModule&#45;&gt;AppComponent  -->
<g id="edge4" class="edge">
<title>AppModule&#45;&gt;AppComponent </title>
<path fill="none" stroke="black" stroke-dasharray="1,5" d="M544,-225.91C544,-225.91 544,-244.79 544,-244.79"/>
<polygon fill="black" stroke="black" points="540.5,-244.79 544,-254.79 547.5,-244.79 540.5,-244.79"/>
</g>
<!-- AppRoutingModule -->
<g id="node3" class="node">
<title>AppRoutingModule</title>
<polygon fill="#8dd3c7" stroke="black" points="608.27,-160.8 605.27,-164.8 584.27,-164.8 581.27,-160.8 479.73,-160.8 479.73,-124.8 608.27,-124.8 608.27,-160.8"/>
<text text-anchor="middle" x="544" y="-138.6" font-family="Times,serif" font-size="14.00">AppRoutingModule</text>
</g>
<!-- AppRoutingModule&#45;&gt;AppModule -->
<g id="edge2" class="edge">
<title>AppRoutingModule&#45;&gt;AppModule</title>
<path fill="none" stroke="black" d="M544,-160.91C544,-160.91 544,-179.79 544,-179.79"/>
<polygon fill="black" stroke="black" points="540.5,-179.79 544,-189.79 547.5,-179.79 540.5,-179.79"/>
</g>
<!-- LayoutModule -->
<g id="node4" class="node">
<title>LayoutModule</title>
<polygon fill="#8dd3c7" stroke="black" points="461.71,-160.8 458.71,-164.8 437.71,-164.8 434.71,-160.8 362.29,-160.8 362.29,-124.8 461.71,-124.8 461.71,-160.8"/>
<text text-anchor="middle" x="412" y="-138.6" font-family="Times,serif" font-size="14.00">LayoutModule</text>
</g>
<!-- LayoutModule&#45;&gt;AppModule -->
<g id="edge3" class="edge">
<title>LayoutModule&#45;&gt;AppModule</title>
<path fill="none" stroke="black" d="M412,-160.91C412,-180.14 412,-207.8 412,-207.8 412,-207.8 492.23,-207.8 492.23,-207.8"/>
<polygon fill="black" stroke="black" points="492.23,-211.3 502.23,-207.8 492.23,-204.3 492.23,-211.3"/>
</g>
<!-- MenuVertiComponent  -->
<g id="node19" class="node">
<title>MenuVertiComponent </title>
<polygon fill="#fb8072" stroke="black" points="316.25,-84.8 169.75,-84.8 169.75,-48.8 316.25,-48.8 316.25,-84.8"/>
<text text-anchor="middle" x="243" y="-62.6" font-family="Times,serif" font-size="14.00">MenuVertiComponent </text>
</g>
<!-- LayoutModule&#45;&gt;MenuVertiComponent  -->
<g id="edge16" class="edge">
<title>LayoutModule&#45;&gt;MenuVertiComponent </title>
<path fill="none" stroke="black" stroke-dasharray="5,2" d="M362.2,-139.8C304.91,-139.8 218.62,-139.8 218.62,-139.8 218.62,-139.8 218.62,-94.84 218.62,-94.84"/>
<polygon fill="black" stroke="black" points="222.12,-94.84 218.62,-84.84 215.12,-94.84 222.12,-94.84"/>
</g>
<!-- LayoutModule&#45;&gt;MenuVertiComponent  -->
<g id="edge19" class="edge">
<title>LayoutModule&#45;&gt;MenuVertiComponent </title>
<path fill="none" stroke="black" stroke-dasharray="1,5" d="M362.23,-132.8C320.39,-132.8 267.38,-132.8 267.38,-132.8 267.38,-132.8 267.38,-94.83 267.38,-94.83"/>
<polygon fill="black" stroke="black" points="270.88,-94.83 267.38,-84.83 263.88,-94.83 270.88,-94.83"/>
</g>
<!-- SessionComponent  -->
<g id="node20" class="node">
<title>SessionComponent </title>
<polygon fill="#fb8072" stroke="black" points="151.61,-84.8 24.39,-84.8 24.39,-48.8 151.61,-48.8 151.61,-84.8"/>
<text text-anchor="middle" x="88" y="-62.6" font-family="Times,serif" font-size="14.00">SessionComponent </text>
</g>
<!-- LayoutModule&#45;&gt;SessionComponent  -->
<g id="edge17" class="edge">
<title>LayoutModule&#45;&gt;SessionComponent </title>
<path fill="none" stroke="black" stroke-dasharray="5,2" d="M362.35,-146.8C276.46,-146.8 109.27,-146.8 109.27,-146.8 109.27,-146.8 109.27,-94.95 109.27,-94.95"/>
<polygon fill="black" stroke="black" points="112.77,-94.95 109.27,-84.95 105.77,-94.95 112.77,-94.95"/>
</g>
<!-- LayoutModule&#45;&gt;SessionComponent  -->
<g id="edge18" class="edge">
<title>LayoutModule&#45;&gt;SessionComponent </title>
<path fill="none" stroke="black" stroke-dasharray="1,5" d="M362.16,-153.8C266.55,-153.8 66.73,-153.8 66.73,-153.8 66.73,-153.8 66.73,-94.83 66.73,-94.83"/>
<polygon fill="black" stroke="black" points="70.23,-94.83 66.73,-84.83 63.23,-94.83 70.23,-94.83"/>
</g>
<!-- CreateComponent -->
<g id="node6" class="node">
<title>CreateComponent</title>
<polygon fill="#ffffb3" stroke="black" points="1645.86,-84.8 1528.14,-84.8 1528.14,-48.8 1645.86,-48.8 1645.86,-84.8"/>
<text text-anchor="middle" x="1587" y="-62.6" font-family="Times,serif" font-size="14.00">CreateComponent</text>
</g>
<!-- AuthModule -->
<g id="node9" class="node">
<title>AuthModule</title>
<polygon fill="#8dd3c7" stroke="black" points="1428.55,-160.8 1425.55,-164.8 1404.55,-164.8 1401.55,-160.8 1341.45,-160.8 1341.45,-124.8 1428.55,-124.8 1428.55,-160.8"/>
<text text-anchor="middle" x="1385" y="-138.6" font-family="Times,serif" font-size="14.00">AuthModule</text>
</g>
<!-- CreateComponent&#45;&gt;AuthModule -->
<g id="edge5" class="edge">
<title>CreateComponent&#45;&gt;AuthModule</title>
<path fill="none" stroke="black" d="M1587,-84.81C1587,-107.29 1587,-142.8 1587,-142.8 1587,-142.8 1438.83,-142.8 1438.83,-142.8"/>
<polygon fill="black" stroke="black" points="1438.83,-139.3 1428.83,-142.8 1438.83,-146.3 1438.83,-139.3"/>
</g>
<!-- LoginComponent -->
<g id="node7" class="node">
<title>LoginComponent</title>
<polygon fill="#ffffb3" stroke="black" points="1510.28,-84.8 1395.72,-84.8 1395.72,-48.8 1510.28,-48.8 1510.28,-84.8"/>
<text text-anchor="middle" x="1453" y="-62.6" font-family="Times,serif" font-size="14.00">LoginComponent</text>
</g>
<!-- LoginComponent&#45;&gt;AuthModule -->
<g id="edge6" class="edge">
<title>LoginComponent&#45;&gt;AuthModule</title>
<path fill="none" stroke="black" d="M1412.19,-84.81C1412.19,-84.81 1412.19,-114.65 1412.19,-114.65"/>
<polygon fill="black" stroke="black" points="1408.69,-114.65 1412.19,-124.65 1415.69,-114.65 1408.69,-114.65"/>
</g>
<!-- LogoutComponent -->
<g id="node8" class="node">
<title>LogoutComponent</title>
<polygon fill="#ffffb3" stroke="black" points="1377.78,-84.8 1256.22,-84.8 1256.22,-48.8 1377.78,-48.8 1377.78,-84.8"/>
<text text-anchor="middle" x="1317" y="-62.6" font-family="Times,serif" font-size="14.00">LogoutComponent</text>
</g>
<!-- LogoutComponent&#45;&gt;AuthModule -->
<g id="edge7" class="edge">
<title>LogoutComponent&#45;&gt;AuthModule</title>
<path fill="none" stroke="black" d="M1359.56,-84.81C1359.56,-84.81 1359.56,-114.65 1359.56,-114.65"/>
<polygon fill="black" stroke="black" points="1356.06,-114.65 1359.56,-124.65 1363.06,-114.65 1356.06,-114.65"/>
</g>
<!-- AuthRoutingModule -->
<g id="node10" class="node">
<title>AuthRoutingModule</title>
<polygon fill="#8dd3c7" stroke="black" points="1232.17,-84.8 1229.17,-88.8 1208.17,-88.8 1205.17,-84.8 1099.83,-84.8 1099.83,-48.8 1232.17,-48.8 1232.17,-84.8"/>
<text text-anchor="middle" x="1166" y="-62.6" font-family="Times,serif" font-size="14.00">AuthRoutingModule</text>
</g>
<!-- AuthRoutingModule&#45;&gt;AuthModule -->
<g id="edge8" class="edge">
<title>AuthRoutingModule&#45;&gt;AuthModule</title>
<path fill="none" stroke="black" d="M1166,-84.81C1166,-107.29 1166,-142.8 1166,-142.8 1166,-142.8 1331.21,-142.8 1331.21,-142.8"/>
<polygon fill="black" stroke="black" points="1331.21,-146.3 1341.21,-142.8 1331.21,-139.3 1331.21,-146.3"/>
</g>
<!-- ProfilComponent -->
<g id="node11" class="node">
<title>ProfilComponent</title>
<polygon fill="#ffffb3" stroke="black" points="1975.72,-84.8 1862.28,-84.8 1862.28,-48.8 1975.72,-48.8 1975.72,-84.8"/>
<text text-anchor="middle" x="1919" y="-62.6" font-family="Times,serif" font-size="14.00">ProfilComponent</text>
</g>
<!-- EtudiantModule -->
<g id="node12" class="node">
<title>EtudiantModule</title>
<polygon fill="#8dd3c7" stroke="black" points="1893.49,-160.8 1890.49,-164.8 1869.49,-164.8 1866.49,-160.8 1786.51,-160.8 1786.51,-124.8 1893.49,-124.8 1893.49,-160.8"/>
<text text-anchor="middle" x="1840" y="-138.6" font-family="Times,serif" font-size="14.00">EtudiantModule</text>
</g>
<!-- ProfilComponent&#45;&gt;EtudiantModule -->
<g id="edge9" class="edge">
<title>ProfilComponent&#45;&gt;EtudiantModule</title>
<path fill="none" stroke="black" d="M1877.94,-84.81C1877.94,-84.81 1877.94,-114.65 1877.94,-114.65"/>
<polygon fill="black" stroke="black" points="1874.44,-114.65 1877.94,-124.65 1881.44,-114.65 1874.44,-114.65"/>
</g>
<!-- EtudiantRoutingModule -->
<g id="node13" class="node">
<title>EtudiantRoutingModule</title>
<polygon fill="#8dd3c7" stroke="black" points="1838.11,-84.8 1835.11,-88.8 1814.11,-88.8 1811.11,-84.8 1685.89,-84.8 1685.89,-48.8 1838.11,-48.8 1838.11,-84.8"/>
<text text-anchor="middle" x="1762" y="-62.6" font-family="Times,serif" font-size="14.00">EtudiantRoutingModule</text>
</g>
<!-- EtudiantRoutingModule&#45;&gt;EtudiantModule -->
<g id="edge10" class="edge">
<title>EtudiantRoutingModule&#45;&gt;EtudiantModule</title>
<path fill="none" stroke="black" d="M1812.28,-84.81C1812.28,-84.81 1812.28,-114.65 1812.28,-114.65"/>
<polygon fill="black" stroke="black" points="1808.78,-114.65 1812.28,-124.65 1815.78,-114.65 1808.78,-114.65"/>
</g>
<!-- FooterComponent -->
<g id="node14" class="node">
<title>FooterComponent</title>
<polygon fill="#ffffb3" stroke="black" points="1059.88,-84.8 942.12,-84.8 942.12,-48.8 1059.88,-48.8 1059.88,-84.8"/>
<text text-anchor="middle" x="1001" y="-62.6" font-family="Times,serif" font-size="14.00">FooterComponent</text>
</g>
<!-- FooterComponent&#45;&gt;LayoutModule -->
<g id="edge11" class="edge">
<title>FooterComponent&#45;&gt;LayoutModule</title>
<path fill="none" stroke="black" d="M1001,-84.85C1001,-99.17 1001,-116.8 1001,-116.8 1001,-116.8 445.07,-116.8 445.07,-116.8 445.07,-116.8 445.07,-117.59 445.07,-117.59"/>
<polygon fill="black" stroke="black" points="441.57,-114.74 445.07,-124.74 448.57,-114.74 441.57,-114.74"/>
</g>
<!-- MenuComponent -->
<g id="node15" class="node">
<title>MenuComponent</title>
<polygon fill="#ffffb3" stroke="black" points="923.99,-84.8 810.01,-84.8 810.01,-48.8 923.99,-48.8 923.99,-84.8"/>
<text text-anchor="middle" x="867" y="-62.6" font-family="Times,serif" font-size="14.00">MenuComponent</text>
</g>
<!-- MenuComponent&#45;&gt;LayoutModule -->
<g id="edge12" class="edge">
<title>MenuComponent&#45;&gt;LayoutModule</title>
<path fill="none" stroke="black" d="M867,-84.86C867,-96.24 867,-108.8 867,-108.8 867,-108.8 428.53,-108.8 428.53,-108.8 428.53,-108.8 428.53,-114.61 428.53,-114.61"/>
<polygon fill="black" stroke="black" points="425.03,-114.61 428.53,-124.61 432.03,-114.61 425.03,-114.61"/>
</g>
<!-- MenuVertiComponent -->
<g id="node16" class="node">
<title>MenuVertiComponent</title>
<polygon fill="#ffffb3" stroke="black" points="792.25,-84.8 649.75,-84.8 649.75,-48.8 792.25,-48.8 792.25,-84.8"/>
<text text-anchor="middle" x="721" y="-62.6" font-family="Times,serif" font-size="14.00">MenuVertiComponent</text>
</g>
<!-- MenuVertiComponent&#45;&gt;LayoutModule -->
<g id="edge13" class="edge">
<title>MenuVertiComponent&#45;&gt;LayoutModule</title>
<path fill="none" stroke="black" d="M693.67,-84.99C693.67,-93.08 693.67,-100.8 693.67,-100.8 693.67,-100.8 412,-100.8 412,-100.8 412,-100.8 412,-114.74 412,-114.74"/>
<polygon fill="black" stroke="black" points="408.5,-114.74 412,-124.74 415.5,-114.74 408.5,-114.74"/>
</g>
<!-- SessionComponent -->
<g id="node17" class="node">
<title>SessionComponent</title>
<polygon fill="#ffffb3" stroke="black" points="632.11,-84.8 507.89,-84.8 507.89,-48.8 632.11,-48.8 632.11,-84.8"/>
<text text-anchor="middle" x="570" y="-62.6" font-family="Times,serif" font-size="14.00">SessionComponent</text>
</g>
<!-- SessionComponent&#45;&gt;LayoutModule -->
<g id="edge14" class="edge">
<title>SessionComponent&#45;&gt;LayoutModule</title>
<path fill="none" stroke="black" d="M558.17,-84.86C558.17,-89.29 558.17,-92.8 558.17,-92.8 558.17,-92.8 395.47,-92.8 395.47,-92.8 395.47,-92.8 395.47,-114.75 395.47,-114.75"/>
<polygon fill="black" stroke="black" points="391.97,-114.75 395.47,-124.75 398.97,-114.75 391.97,-114.75"/>
</g>
<!-- LayoutRoutingModule -->
<g id="node18" class="node">
<title>LayoutRoutingModule</title>
<polygon fill="#8dd3c7" stroke="black" points="484.33,-84.8 481.33,-88.8 460.33,-88.8 457.33,-84.8 339.67,-84.8 339.67,-48.8 484.33,-48.8 484.33,-84.8"/>
<text text-anchor="middle" x="412" y="-62.6" font-family="Times,serif" font-size="14.00">LayoutRoutingModule</text>
</g>
<!-- LayoutRoutingModule&#45;&gt;LayoutModule -->
<g id="edge15" class="edge">
<title>LayoutRoutingModule&#45;&gt;LayoutModule</title>
<path fill="none" stroke="black" d="M378.93,-84.81C378.93,-84.81 378.93,-114.65 378.93,-114.65"/>
<polygon fill="black" stroke="black" points="375.43,-114.65 378.93,-124.65 382.43,-114.65 375.43,-114.65"/>
</g>
<!-- AboutComponent -->
<g id="node21" class="node">
<title>AboutComponent</title>
<polygon fill="#ffffb3" stroke="black" points="2593.33,-84.8 2476.67,-84.8 2476.67,-48.8 2593.33,-48.8 2593.33,-84.8"/>
<text text-anchor="middle" x="2535" y="-62.6" font-family="Times,serif" font-size="14.00">AboutComponent</text>
</g>
<!-- PublicModule -->
<g id="node24" class="node">
<title>PublicModule</title>
<polygon fill="#8dd3c7" stroke="black" points="2359.83,-160.8 2356.83,-164.8 2335.83,-164.8 2332.83,-160.8 2264.17,-160.8 2264.17,-124.8 2359.83,-124.8 2359.83,-160.8"/>
<text text-anchor="middle" x="2312" y="-138.6" font-family="Times,serif" font-size="14.00">PublicModule</text>
</g>
<!-- AboutComponent&#45;&gt;PublicModule -->
<g id="edge20" class="edge">
<title>AboutComponent&#45;&gt;PublicModule</title>
<path fill="none" stroke="black" d="M2535,-84.81C2535,-107.29 2535,-142.8 2535,-142.8 2535,-142.8 2369.84,-142.8 2369.84,-142.8"/>
<polygon fill="black" stroke="black" points="2369.84,-139.3 2359.84,-142.8 2369.84,-146.3 2369.84,-139.3"/>
</g>
<!-- FormationsComponent -->
<g id="node22" class="node">
<title>FormationsComponent</title>
<polygon fill="#ffffb3" stroke="black" points="2458.61,-84.8 2313.39,-84.8 2313.39,-48.8 2458.61,-48.8 2458.61,-84.8"/>
<text text-anchor="middle" x="2386" y="-62.6" font-family="Times,serif" font-size="14.00">FormationsComponent</text>
</g>
<!-- FormationsComponent&#45;&gt;PublicModule -->
<g id="edge21" class="edge">
<title>FormationsComponent&#45;&gt;PublicModule</title>
<path fill="none" stroke="black" d="M2336.56,-84.81C2336.56,-84.81 2336.56,-114.65 2336.56,-114.65"/>
<polygon fill="black" stroke="black" points="2333.06,-114.65 2336.56,-124.65 2340.06,-114.65 2333.06,-114.65"/>
</g>
<!-- HomeComponent -->
<g id="node23" class="node">
<title>HomeComponent</title>
<polygon fill="#ffffb3" stroke="black" points="2295.55,-84.8 2180.45,-84.8 2180.45,-48.8 2295.55,-48.8 2295.55,-84.8"/>
<text text-anchor="middle" x="2238" y="-62.6" font-family="Times,serif" font-size="14.00">HomeComponent</text>
</g>
<!-- HomeComponent&#45;&gt;PublicModule -->
<g id="edge22" class="edge">
<title>HomeComponent&#45;&gt;PublicModule</title>
<path fill="none" stroke="black" d="M2280.05,-84.81C2280.05,-84.81 2280.05,-114.65 2280.05,-114.65"/>
<polygon fill="black" stroke="black" points="2276.55,-114.65 2280.05,-124.65 2283.55,-114.65 2276.55,-114.65"/>
</g>
<!-- PublicRoutingModule -->
<g id="node25" class="node">
<title>PublicRoutingModule</title>
<polygon fill="#8dd3c7" stroke="black" points="2156.45,-84.8 2153.45,-88.8 2132.45,-88.8 2129.45,-84.8 2015.55,-84.8 2015.55,-48.8 2156.45,-48.8 2156.45,-84.8"/>
<text text-anchor="middle" x="2086" y="-62.6" font-family="Times,serif" font-size="14.00">PublicRoutingModule</text>
</g>
<!-- PublicRoutingModule&#45;&gt;PublicModule -->
<g id="edge23" class="edge">
<title>PublicRoutingModule&#45;&gt;PublicModule</title>
<path fill="none" stroke="black" d="M2086,-84.81C2086,-107.29 2086,-142.8 2086,-142.8 2086,-142.8 2254.07,-142.8 2254.07,-142.8"/>
<polygon fill="black" stroke="black" points="2254.07,-146.3 2264.07,-142.8 2254.07,-139.3 2254.07,-146.3"/>
</g>
</g>
</svg>
